#define NOTE_B0  31
#define NOTE_C1  33
#define NOTE_CS1 35
#define NOTE_D1  37
#define NOTE_DS1 39
#define NOTE_E1  41
#define NOTE_F1  44
#define NOTE_FS1 46
#define NOTE_G1  49
#define NOTE_GS1 52
#define NOTE_A1  55
#define NOTE_AS1 58
#define NOTE_B1  62
#define NOTE_C2  65
#define NOTE_CS2 69
#define NOTE_D2  73
#define NOTE_DS2 78
#define NOTE_E2  82
#define NOTE_F2  87
#define NOTE_FS2 93
#define NOTE_G2  98
#define NOTE_GS2 104
#define NOTE_A2  110
#define NOTE_AS2 117
#define NOTE_B2  123
#define NOTE_C3  131
#define NOTE_CS3 139
#define NOTE_D3  147
#define NOTE_DS3 156
#define NOTE_E3  165
#define NOTE_F3  175
#define NOTE_FS3 185
#define NOTE_G3  196
#define NOTE_GS3 208
#define NOTE_A3  220
#define NOTE_AS3 233
#define NOTE_B3  247
#define NOTE_C4  262
#define NOTE_CS4 277
#define NOTE_D4  294
#define NOTE_DS4 311
#define NOTE_E4  330
#define NOTE_F4  349
#define NOTE_FS4 370
#define NOTE_G4  392
#define NOTE_GS4 415
#define NOTE_A4  440
#define NOTE_AS4 466
#define NOTE_B4  494
#define NOTE_C5  523
#define NOTE_CS5 554
#define NOTE_D5  587
#define NOTE_DS5 622
#define NOTE_E5  659
#define NOTE_F5  698
#define NOTE_FS5 740
#define NOTE_G5  784
#define NOTE_GS5 831
#define NOTE_A5  880
#define NOTE_AS5 932
#define NOTE_B5  988
#define NOTE_C6  1047
#define NOTE_CS6 1109
#define NOTE_D6  1175
#define NOTE_DS6 1245
#define NOTE_E6  1319
#define NOTE_F6  1397
#define NOTE_FS6 1480
#define NOTE_G6  1568
#define NOTE_GS6 1661
#define NOTE_A6  1760
#define NOTE_AS6 1865
#define NOTE_B6  1976
#define NOTE_C7  2093
#define NOTE_CS7 2217
#define NOTE_D7  2349
#define NOTE_DS7 2489
#define NOTE_E7  2637
#define NOTE_F7  2794
#define NOTE_FS7 2960
#define NOTE_G7  3136
#define NOTE_GS7 3322
#define NOTE_A7  3520
#define NOTE_AS7 3729
#define NOTE_B7  3951
#define NOTE_C8  4186
#define NOTE_CS8 4435
#define NOTE_D8  4699
#define NOTE_DS8 4978
#define REST      0


// notes of the moledy followed by the duration.
// a 4 means a quarter note, 8 an eighteenth , 16 sixteenth, so on
// !!negative numbers are used to represent dotted notes,
// so -4 means a dotted quarter note, that is, a quarter plus an eighteenth!!
// This code uses PROGMEM to fit the melody to flash as it was to long to fit
// in SRAM. It may not work on other Arduino arquitectures other than AVR
const int melody[] PROGMEM = {

  // At Doom's Gate (E1M1)
  // Score available at https://musescore.com/pieridot/doom

  NOTE_E2, 8, NOTE_E2, 8, NOTE_E3, 8, NOTE_E2, 8, NOTE_E2, 8, NOTE_D3, 8, NOTE_E2, 8, NOTE_E2, 8, //1
  NOTE_C3, 8, NOTE_E2, 8, NOTE_E2, 8, NOTE_AS2, 8, NOTE_E2, 8, NOTE_E2, 8, NOTE_B2, 8, NOTE_C3, 8,
  NOTE_E2, 8, NOTE_E2, 8, NOTE_E3, 8, NOTE_E2, 8, NOTE_E2, 8, NOTE_D3, 8, NOTE_E2, 8, NOTE_E2, 8,
  NOTE_C3, 8, NOTE_E2, 8, NOTE_E2, 8, NOTE_AS2, -2,

  NOTE_E2, 8, NOTE_E2, 8, NOTE_E3, 8, NOTE_E2, 8, NOTE_E2, 8, NOTE_D3, 8, NOTE_E2, 8, NOTE_E2, 8, //5
  NOTE_C3, 8, NOTE_E2, 8, NOTE_E2, 8, NOTE_AS2, 8, NOTE_E2, 8, NOTE_E2, 8, NOTE_B2, 8, NOTE_C3, 8,
  NOTE_E2, 8, NOTE_E2, 8, NOTE_E3, 8, NOTE_E2, 8, NOTE_E2, 8, NOTE_D3, 8, NOTE_E2, 8, NOTE_E2, 8,
  NOTE_C3, 8, NOTE_E2, 8, NOTE_E2, 8, NOTE_AS2, -2,

  NOTE_E2, 8, NOTE_E2, 8, NOTE_E3, 8, NOTE_E2, 8, NOTE_E2, 8, NOTE_D3, 8, NOTE_E2, 8, NOTE_E2, 8, //9
  NOTE_C3, 8, NOTE_E2, 8, NOTE_E2, 8, NOTE_AS2, 8, NOTE_E2, 8, NOTE_E2, 8, NOTE_B2, 8, NOTE_C3, 8,
  NOTE_E2, 8, NOTE_E2, 8, NOTE_E3, 8, NOTE_E2, 8, NOTE_E2, 8, NOTE_D3, 8, NOTE_E2, 8, NOTE_E2, 8,
  NOTE_C3, 8, NOTE_E2, 8, NOTE_E2, 8, NOTE_AS2, -2,

  NOTE_E2, 8, NOTE_E2, 8, NOTE_E3, 8, NOTE_E2, 8, NOTE_E2, 8, NOTE_D3, 8, NOTE_E2, 8, NOTE_E2, 8, //13
  NOTE_C3, 8, NOTE_E2, 8, NOTE_E2, 8, NOTE_AS2, 8, NOTE_E2, 8, NOTE_E2, 8, NOTE_B2, 8, NOTE_C3, 8,
  NOTE_E2, 8, NOTE_E2, 8, NOTE_E3, 8, NOTE_E2, 8, NOTE_E2, 8, NOTE_D3, 8, NOTE_E2, 8, NOTE_E2, 8,
  NOTE_FS3, -16, NOTE_D3, -16, NOTE_B2, -16, NOTE_A3, -16, NOTE_FS3, -16, NOTE_B2, -16, NOTE_D3, -16, NOTE_FS3, -16, NOTE_A3, -16, NOTE_FS3, -16, NOTE_D3, -16, NOTE_B2, -16,

  NOTE_E2, 8, NOTE_E2, 8, NOTE_E3, 8, NOTE_E2, 8, NOTE_E2, 8, NOTE_D3, 8, NOTE_E2, 8, NOTE_E2, 8, //17
  NOTE_C3, 8, NOTE_E2, 8, NOTE_E2, 8, NOTE_AS2, 8, NOTE_E2, 8, NOTE_E2, 8, NOTE_B2, 8, NOTE_C3, 8,
  NOTE_E2, 8, NOTE_E2, 8, NOTE_E3, 8, NOTE_E2, 8, NOTE_E2, 8, NOTE_D3, 8, NOTE_E2, 8, NOTE_E2, 8,
  NOTE_C3, 8, NOTE_E2, 8, NOTE_E2, 8, NOTE_AS2, -2,

  NOTE_E2, 8, NOTE_E2, 8, NOTE_E3, 8, NOTE_E2, 8, NOTE_E2, 8, NOTE_D3, 8, NOTE_E2, 8, NOTE_E2, 8, //21
  NOTE_C3, 8, NOTE_E2, 8, NOTE_E2, 8, NOTE_AS2, 8, NOTE_E2, 8, NOTE_E2, 8, NOTE_B2, 8, NOTE_C3, 8,
  NOTE_E2, 8, NOTE_E2, 8, NOTE_E3, 8, NOTE_E2, 8, NOTE_E2, 8, NOTE_D3, 8, NOTE_E2, 8, NOTE_E2, 8,
  NOTE_B3, -16, NOTE_G3, -16, NOTE_E3, -16, NOTE_G3, -16, NOTE_B3, -16, NOTE_E4, -16, NOTE_G3, -16, NOTE_B3, -16, NOTE_E4, -16, NOTE_B3, -16, NOTE_G4, -16, NOTE_B4, -16,

  NOTE_A2, 8, NOTE_A2, 8, NOTE_A3, 8, NOTE_A2, 8, NOTE_A2, 8, NOTE_G3, 8, NOTE_A2, 8, NOTE_A2, 8, //25
  NOTE_F3, 8, NOTE_A2, 8, NOTE_A2, 8, NOTE_DS3, 8, NOTE_A2, 8, NOTE_A2, 8, NOTE_E3, 8, NOTE_F3, 8,
  NOTE_A2, 8, NOTE_A2, 8, NOTE_A3, 8, NOTE_A2, 8, NOTE_A2, 8, NOTE_G3, 8, NOTE_A2, 8, NOTE_A2, 8,
  NOTE_F3, 8, NOTE_A2, 8, NOTE_A2, 8, NOTE_DS3, -2,

  NOTE_A2, 8, NOTE_A2, 8, NOTE_A3, 8, NOTE_A2, 8, NOTE_A2, 8, NOTE_G3, 8, NOTE_A2, 8, NOTE_A2, 8, //29
  NOTE_F3, 8, NOTE_A2, 8, NOTE_A2, 8, NOTE_DS3, 8, NOTE_A2, 8, NOTE_A2, 8, NOTE_E3, 8, NOTE_F3, 8,
  NOTE_A2, 8, NOTE_A2, 8, NOTE_A3, 8, NOTE_A2, 8, NOTE_A2, 8, NOTE_G3, 8, NOTE_A2, 8, NOTE_A2, 8,
  NOTE_A3, -16, NOTE_F3, -16, NOTE_D3, -16, NOTE_A3, -16, NOTE_F3, -16, NOTE_D3, -16, NOTE_C4, -16, NOTE_A3, -16, NOTE_F3, -16, NOTE_A3, -16, NOTE_F3, -16, NOTE_D3, -16,

  NOTE_E2, 8, NOTE_E2, 8, NOTE_E3, 8, NOTE_E2, 8, NOTE_E2, 8, NOTE_D3, 8, NOTE_E2, 8, NOTE_E2, 8, //33
  NOTE_C3, 8, NOTE_E2, 8, NOTE_E2, 8, NOTE_AS2, 8, NOTE_E2, 8, NOTE_E2, 8, NOTE_B2, 8, NOTE_C3, 8,
  NOTE_E2, 8, NOTE_E2, 8, NOTE_E3, 8, NOTE_E2, 8, NOTE_E2, 8, NOTE_D3, 8, NOTE_E2, 8, NOTE_E2, 8,
  NOTE_C3, 8, NOTE_E2, 8, NOTE_E2, 8, NOTE_AS2, -2,

  NOTE_E2, 8, NOTE_E2, 8, NOTE_E3, 8, NOTE_E2, 8, NOTE_E2, 8, NOTE_D3, 8, NOTE_E2, 8, NOTE_E2, 8, //37
  NOTE_C3, 8, NOTE_E2, 8, NOTE_E2, 8, NOTE_AS2, 8, NOTE_E2, 8, NOTE_E2, 8, NOTE_B2, 8, NOTE_C3, 8,
  NOTE_E2, 8, NOTE_E2, 8, NOTE_E3, 8, NOTE_E2, 8, NOTE_E2, 8, NOTE_D3, 8, NOTE_E2, 8, NOTE_E2, 8,
  NOTE_C3, 8, NOTE_E2, 8, NOTE_E2, 8, NOTE_AS2, -2,

  NOTE_CS3, 8, NOTE_CS3, 8, NOTE_CS4, 8, NOTE_CS3, 8, NOTE_CS3, 8, NOTE_B3, 8, NOTE_CS3, 8, NOTE_CS3, 8, //41
  NOTE_A3, 8, NOTE_CS3, 8, NOTE_CS3, 8, NOTE_G3, 8, NOTE_CS3, 8, NOTE_CS3, 8, NOTE_GS3, 8, NOTE_A3, 8,
  NOTE_B2, 8, NOTE_B2, 8, NOTE_B3, 8, NOTE_B2, 8, NOTE_B2, 8, NOTE_A3, 8, NOTE_B2, 8, NOTE_B2, 8,
  NOTE_G3, 8, NOTE_B2, 8, NOTE_B2, 8, NOTE_F3, -2,

  NOTE_E2, 8, NOTE_E2, 8, NOTE_E3, 8, NOTE_E2, 8, NOTE_E2, 8, NOTE_D3, 8, NOTE_E2, 8, NOTE_E2, 8, //45
  NOTE_C3, 8, NOTE_E2, 8, NOTE_E2, 8, NOTE_AS2, 8, NOTE_E2, 8, NOTE_E2, 8, NOTE_B2, 8, NOTE_C3, 8,
  NOTE_E2, 8, NOTE_E2, 8, NOTE_E3, 8, NOTE_E2, 8, NOTE_E2, 8, NOTE_D3, 8, NOTE_E2, 8, NOTE_E2, 8,
  NOTE_B3, -16, NOTE_G3, -16, NOTE_E3, -16, NOTE_G3, -16, NOTE_B3, -16, NOTE_E4, -16, NOTE_G3, -16, NOTE_B3, -16, NOTE_E4, -16, NOTE_B3, -16, NOTE_G4, -16, NOTE_B4, -16,

  NOTE_E2, 8, NOTE_E2, 8, NOTE_E3, 8, NOTE_E2, 8, NOTE_E2, 8, NOTE_D3, 8, NOTE_E2, 8, NOTE_E2, 8, //49
  NOTE_C3, 8, NOTE_E2, 8, NOTE_E2, 8, NOTE_AS2, 8, NOTE_E2, 8, NOTE_E2, 8, NOTE_B2, 8, NOTE_C3, 8,
  NOTE_E2, 8, NOTE_E2, 8, NOTE_E3, 8, NOTE_E2, 8, NOTE_E2, 8, NOTE_D3, 8, NOTE_E2, 8, NOTE_E2, 8,
  NOTE_C3, 8, NOTE_E2, 8, NOTE_E2, 8, NOTE_AS2, -2,

  NOTE_E2, 8, NOTE_E2, 8, NOTE_E3, 8, NOTE_E2, 8, NOTE_E2, 8, NOTE_D3, 8, NOTE_E2, 8, NOTE_E2, 8, //53
  NOTE_C3, 8, NOTE_E2, 8, NOTE_E2, 8, NOTE_AS2, 8, NOTE_E2, 8, NOTE_E2, 8, NOTE_B2, 8, NOTE_C3, 8,
  NOTE_E2, 8, NOTE_E2, 8, NOTE_E3, 8, NOTE_E2, 8, NOTE_E2, 8, NOTE_D3, 8, NOTE_E2, 8, NOTE_E2, 8,
  NOTE_FS3, -16, NOTE_DS3, -16, NOTE_B2, -16, NOTE_FS3, -16, NOTE_DS3, -16, NOTE_B2, -16, NOTE_G3, -16, NOTE_D3, -16, NOTE_B2, -16, NOTE_DS4, -16, NOTE_DS3, -16, NOTE_B2, -16,

// -/-

  NOTE_E2, 8, NOTE_E2, 8, NOTE_E3, 8, NOTE_E2, 8, NOTE_E2, 8, NOTE_D3, 8, NOTE_E2, 8, NOTE_E2, 8, //57
  NOTE_C3, 8, NOTE_E2, 8, NOTE_E2, 8, NOTE_AS2, 8, NOTE_E2, 8, NOTE_E2, 8, NOTE_B2, 8, NOTE_C3, 8,
  NOTE_E2, 8, NOTE_E2, 8, NOTE_E3, 8, NOTE_E2, 8, NOTE_E2, 8, NOTE_D3, 8, NOTE_E2, 8, NOTE_E2, 8,
  NOTE_C3, 8, NOTE_E2, 8, NOTE_E2, 8, NOTE_AS2, -2,

  NOTE_E2, 8, NOTE_E2, 8, NOTE_E3, 8, NOTE_E2, 8, NOTE_E2, 8, NOTE_D3, 8, NOTE_E2, 8, NOTE_E2, 8, //61
  NOTE_C3, 8, NOTE_E2, 8, NOTE_E2, 8, NOTE_AS2, 8, NOTE_E2, 8, NOTE_E2, 8, NOTE_B2, 8, NOTE_C3, 8,
  NOTE_E2, 8, NOTE_E2, 8, NOTE_E3, 8, NOTE_E2, 8, NOTE_E2, 8, NOTE_D3, 8, NOTE_E2, 8, NOTE_E2, 8,
  NOTE_E4, -16, NOTE_B3, -16, NOTE_G3, -16, NOTE_G4, -16, NOTE_E4, -16, NOTE_G3, -16, NOTE_B3, -16, NOTE_D4, -16, NOTE_E4, -16, NOTE_G4, -16, NOTE_E4, -16, NOTE_G3, -16,  

  NOTE_E2, 8, NOTE_E2, 8, NOTE_E3, 8, NOTE_E2, 8, NOTE_E2, 8, NOTE_D3, 8, NOTE_E2, 8, NOTE_E2, 8, //65
  NOTE_C3, 8, NOTE_E2, 8, NOTE_E2, 8, NOTE_AS2, 8, NOTE_E2, 8, NOTE_E2, 8, NOTE_B2, 8, NOTE_C3, 8,
  NOTE_E2, 8, NOTE_E2, 8, NOTE_E3, 8, NOTE_E2, 8, NOTE_E2, 8, NOTE_D3, 8, NOTE_E2, 8, NOTE_E2, 8,
  NOTE_C3, 8, NOTE_E2, 8, NOTE_E2, 8, NOTE_AS2, -2,

  NOTE_A2, 8, NOTE_A2, 8, NOTE_A3, 8, NOTE_A2, 8, NOTE_A2, 8, NOTE_G3, 8, NOTE_A2, 8, NOTE_A2, 8, //69
  NOTE_F3, 8, NOTE_A2, 8, NOTE_A2, 8, NOTE_DS3, 8, NOTE_A2, 8, NOTE_A2, 8, NOTE_E3, 8, NOTE_F3, 8,
  NOTE_A2, 8, NOTE_A2, 8, NOTE_A3, 8, NOTE_A2, 8, NOTE_A2, 8, NOTE_G3, 8, NOTE_A2, 8, NOTE_A2, 8,
  NOTE_A3, -16, NOTE_F3, -16, NOTE_D3, -16, NOTE_A3, -16, NOTE_F3, -16, NOTE_D3, -16, NOTE_C4, -16, NOTE_A3, -16, NOTE_F3, -16, NOTE_A3, -16, NOTE_F3, -16, NOTE_D3, -16,

  NOTE_E2, 8, NOTE_E2, 8, NOTE_E3, 8, NOTE_E2, 8, NOTE_E2, 8, NOTE_D3, 8, NOTE_E2, 8, NOTE_E2, 8, //73
  NOTE_C3, 8, NOTE_E2, 8, NOTE_E2, 8, NOTE_AS2, 8, NOTE_E2, 8, NOTE_E2, 8, NOTE_B2, 8, NOTE_C3, 8,
  NOTE_E2, 8, NOTE_E2, 8, NOTE_E3, 8, NOTE_E2, 8, NOTE_E2, 8, NOTE_D3, 8, NOTE_E2, 8, NOTE_E2, 8,
  NOTE_C3, 8, NOTE_E2, 8, NOTE_E2, 8, NOTE_AS2, -2,

  NOTE_E2, 8, NOTE_E2, 8, NOTE_E3, 8, NOTE_E2, 8, NOTE_E2, 8, NOTE_D3, 8, NOTE_E2, 8, NOTE_E2, 8, //77
  NOTE_C3, 8, NOTE_E2, 8, NOTE_E2, 8, NOTE_AS2, 8, NOTE_E2, 8, NOTE_E2, 8, NOTE_B2, 8, NOTE_C3, 8,
  NOTE_E2, 8, NOTE_E2, 8, NOTE_E3, 8, NOTE_E2, 8, NOTE_E2, 8, NOTE_D3, 8, NOTE_E2, 8, NOTE_E2, 8,
  NOTE_C3, 8, NOTE_E2, 8, NOTE_E2, 8, NOTE_AS2, -2,

  NOTE_E2, 8, NOTE_E2, 8, NOTE_E3, 8, NOTE_E2, 8, NOTE_E2, 8, NOTE_D3, 8, NOTE_E2, 8, NOTE_E2, 8, //81
  NOTE_C3, 8, NOTE_E2, 8, NOTE_E2, 8, NOTE_AS2, 8, NOTE_E2, 8, NOTE_E2, 8, NOTE_B2, 8, NOTE_C3, 8,
  NOTE_E2, 8, NOTE_E2, 8, NOTE_E3, 8, NOTE_E2, 8, NOTE_E2, 8, NOTE_D3, 8, NOTE_E2, 8, NOTE_E2, 8,
  NOTE_C3, 8, NOTE_E2, 8, NOTE_E2, 8, NOTE_AS2, -2,

  NOTE_E2, 8, NOTE_E2, 8, NOTE_E3, 8, NOTE_E2, 8, NOTE_E2, 8, NOTE_D3, 8, NOTE_E2, 8, NOTE_E2, 8, //73
  NOTE_C3, 8, NOTE_E2, 8, NOTE_E2, 8, NOTE_AS2, 8, NOTE_E2, 8, NOTE_E2, 8, NOTE_B2, 8, NOTE_C3, 8,
  NOTE_E2, 8, NOTE_E2, 8, NOTE_E3, 8, NOTE_E2, 8, NOTE_E2, 8, NOTE_D3, 8, NOTE_E2, 8, NOTE_E2, 8,
  NOTE_B3, -16, NOTE_G3, -16, NOTE_E3, -16, NOTE_B2, -16, NOTE_E3, -16, NOTE_G3, -16, NOTE_C4, -16, NOTE_B3, -16, NOTE_G3, -16, NOTE_B3, -16, NOTE_G3, -16, NOTE_E3, -16,  
};

// sizeof gives the number of bytes, each int value is composed of two bytes (16 bits)
// there are two values per note (pitch and duration), so for each note there are four bytes
int notes = sizeof(melody) / sizeof(melody[0]) / 2;

// change this to make the song slower or faster
int tempo = 225;
int divider = 0, noteDuration = 0;
int key = 1;
int wholenote = (60000 * 4) / tempo;
float duration_so_far = 0;

#define LEFT_ON 0
#define RIGHT_ON 1
#define HAZARD_ON 2
#define MUSIC_ON 3
#define FLASH_ON 4
#define NEON_ON 5

#define LEFT_OFF 6
#define RIGHT_OFF 7
#define HAZARD_OFF 8
#define MUSIC_OFF 9
#define FLASH_OFF 10
#define NEON_OFF 11

#define BREAK_ON 12
#define BREAK_OFF 13

#define ACCELERATION_MIN 20
#define ACCELERATION_MAX 30

#define WHEEL_MIN 40
#define WHEEL_MAX 58

boolean stopBuzzer = true;

const int FLASH = 6;
const int RIGHT = 7;
const int NEON = 11;
const int LEFT = 12;
const int buzzer = 13;

char receivedChar;

boolean newData = false;

const int motor1pin1 = 2;
const int motor1pin2 = 3;

const int motor2pin1 = 4;
const int motor2pin2 = 5;

const int speed1 = 10;
const int speed2 = 9;

int oldAngle = 0;

void setup()
{
  pinMode(9, OUTPUT);
  pinMode(10, OUTPUT);
  pinMode(motor1pin1, OUTPUT);
  pinMode(motor1pin2, OUTPUT);
  pinMode(motor2pin1, OUTPUT);
  pinMode(motor2pin2, OUTPUT);

  pinMode(LEFT, OUTPUT);
  pinMode(RIGHT, OUTPUT);
  pinMode(FLASH, OUTPUT);
  pinMode(NEON, OUTPUT);
  pinMode(buzzer, OUTPUT);

  Serial.begin(115200);
}

void loop()
{
  recvOneChar();
  executeNewData();
  
  if (stopBuzzer == false){
    playSong();
  }
}

void recvOneChar() {
    if (Serial.available() > 0) {
        receivedChar = Serial.read();         
        newData = true;
    }
}

void executeNewData() {
    if (newData == true) {

      if (receivedChar == LEFT_ON) {
        digitalWrite(LEFT, HIGH);
      }
      if (receivedChar == LEFT_OFF) {
        digitalWrite(LEFT, LOW);  
      }
      if (receivedChar == RIGHT_ON) {
        digitalWrite(RIGHT, HIGH);  
      }
      if (receivedChar == RIGHT_OFF) {
        digitalWrite(RIGHT, LOW);
      }
      if (receivedChar == HAZARD_ON) {
        digitalWrite(LEFT, HIGH);
        digitalWrite(RIGHT, HIGH);
      }
      if (receivedChar == HAZARD_OFF) {
        digitalWrite(LEFT, LOW);
        digitalWrite(RIGHT, LOW);
      }
      if (receivedChar == MUSIC_ON) {
        stopBuzzer = false;
      }
      if (receivedChar == MUSIC_OFF) {
        stopBuzzer = true;
      }
      if (receivedChar == FLASH_ON) {
        digitalWrite(FLASH, HIGH);
      }
      if (receivedChar == FLASH_OFF) {
        digitalWrite(FLASH, LOW);
      }
      if (receivedChar == NEON_ON) {
        digitalWrite(NEON, HIGH);
      }
      if (receivedChar == NEON_OFF) {
        digitalWrite(NEON, LOW);
      }
      if (receivedChar == BREAK_ON) {
        analogWrite(speed2, 60);
        digitalWrite(motor1pin1, LOW);
        digitalWrite(motor1pin2, HIGH);
      }
      if (receivedChar == BREAK_OFF) {
        analogWrite(speed2, 0);
        digitalWrite(motor1pin1, LOW);
        digitalWrite(motor1pin2, LOW);
      }
      if (receivedChar >= ACCELERATION_MIN && receivedChar <= ACCELERATION_MAX) {
        int x = receivedChar - 20;
        int y = x * 20 + 50;
        if (y == 50) {
          y = 0;
        }
        analogWrite(speed2, y);
        digitalWrite(motor1pin1, HIGH);
        digitalWrite(motor1pin2, LOW);
      }
      if (receivedChar >= WHEEL_MIN && receivedChar <= WHEEL_MAX ) {
        if (receivedChar >= 49 && receivedChar <= 51) {
          analogWrite(speed1, 0);
          digitalWrite(motor2pin1, LOW);
          digitalWrite(motor2pin2, LOW);
          Serial.println("UITE AICI");
        }else{
          int x = receivedChar - 40;
          if (x < 9 ) {
            x = 9 - x;
            if ( x > 6 ) {
              analogWrite(speed1, 250);
              digitalWrite(motor2pin1, HIGH);
              digitalWrite(motor2pin2, LOW);
            }else{
              int y = x * 12 + 147;
              if (oldAngle - x < -1 || oldAngle - x > 1) {
                analogWrite(speed1, 0);
                digitalWrite(motor2pin1, LOW);
                digitalWrite(motor2pin2, LOW);
                delay(100);
              }
              analogWrite(speed1, y);
              digitalWrite(motor2pin1, HIGH);
              digitalWrite(motor2pin2, LOW);
            }
            oldAngle = x;
          }
          if (x > 9) {
            x = x - 9;
            if ( x > 4) {
              analogWrite(speed1, 255);
              digitalWrite(motor2pin1, LOW);
              digitalWrite(motor2pin2, HIGH);
            } else {
            int y = x * 11 + 156;
            if (oldAngle - x < -1 || oldAngle - x > 1) {
              analogWrite(speed1, 0);
              digitalWrite(motor2pin1, LOW);
              digitalWrite(motor2pin2, LOW);
              delay(100);
            }
            
            analogWrite(speed1, y);
            digitalWrite(motor2pin1, LOW);
            digitalWrite(motor2pin2, HIGH);
            }
            oldAngle = x;
          }
        }
      }
      newData = false;
    }
}

int compute_duration()
{
  float totalduration = 0, noteDuration = 0;
  for (int thisNote = 0; thisNote < notes * 2; thisNote = thisNote + 2)
  {

    // calculates the duration of each note
    divider = pgm_read_word_near(melody + thisNote + 1);
    if (divider > 0)
    {
      // regular note, just proceed
      noteDuration = (wholenote) / divider;
    }
    else if (divider < 0)
    {
      // dotted notes are represented with negative durations!!
      noteDuration = (wholenote) / abs(divider);
      noteDuration *= 1.5;
    }
    totalduration += noteDuration;
  }
  return totalduration;
}

void playSong() {
  float totaldur = compute_duration();
  duration_so_far = totaldur;
  float tempofix = 1;
  // iterate over the notes of the melody.
  // Remember, the array is twice the number of notes (notes + durations)
  
  for (int thisNote = 0; thisNote < notes * 2 && stopBuzzer == false; thisNote = thisNote + 2)
  {
    recvOneChar();
    executeNewData();
    
    // calculates the duration of each note
    divider = pgm_read_word_near(melody + thisNote + 1);
    if (divider > 0)
    {
      // regular note, just proceed
      noteDuration = (wholenote) / divider;
    }
    else if (divider < 0)
    {
      // dotted notes are represented with negative durations!!
      noteDuration = (wholenote) / abs(divider);
      noteDuration *= 1.5; // increases the duration in half for dotted notes
    }
    duration_so_far -= thisNote;
    if ((tempofix + 0.1) * totaldur > duration_so_far)
    {
      //tempofix += 0.1;
      wholenote = (60000 * 4) / tempo * tempofix;
    }
    recvOneChar();
    executeNewData();

    // we only play the note for 90% of the duration, leaving 10% as a pause
    tone(buzzer, pgm_read_word_near(int(melody + thisNote)) * key, noteDuration * 0.9);
    
    recvOneChar();
    executeNewData();
    // Wait for the specief duration before playing the next note.
    delay(noteDuration);
    
    recvOneChar();
    executeNewData();
    // stop the waveform generation before the next note.
    noTone(buzzer);
  }
}
